<mxfile host="app.diagrams.net" agent="Mozilla/5.0 (Windows NT 10.0; Win64; x64) AppleWebKit/537.36 (KHTML, like Gecko) Chrome/130.0.0.0 Safari/537.36" version="24.8.2">
  <diagram name="Page-1" id="0gWsJnrh7PNTObbv-XV8">
    <mxGraphModel dx="1247" dy="390" grid="0" gridSize="10" guides="1" tooltips="1" connect="1" arrows="1" fold="1" page="0" pageScale="1" pageWidth="3300" pageHeight="4681" math="0" shadow="0">
      <root>
        <mxCell id="0" />
        <mxCell id="1" parent="0" />
        <mxCell id="HmMxcQXpRnZ39Q23Rilj-1" value="Gestion des utilisateur" style="shape=folder;fontStyle=1;spacingTop=10;tabWidth=40;tabHeight=14;tabPosition=left;html=1;whiteSpace=wrap;" vertex="1" parent="1">
          <mxGeometry x="14" y="74" width="213" height="102" as="geometry" />
        </mxCell>
        <mxCell id="HmMxcQXpRnZ39Q23Rilj-2" value="Gestions des directives" style="shape=folder;fontStyle=1;spacingTop=10;tabWidth=40;tabHeight=14;tabPosition=left;html=1;whiteSpace=wrap;" vertex="1" parent="1">
          <mxGeometry x="322" y="70" width="198" height="105" as="geometry" />
        </mxCell>
        <mxCell id="HmMxcQXpRnZ39Q23Rilj-3" value="Gestions des notification" style="shape=folder;fontStyle=1;spacingTop=10;tabWidth=40;tabHeight=14;tabPosition=left;html=1;whiteSpace=wrap;" vertex="1" parent="1">
          <mxGeometry x="14" y="210" width="212" height="104" as="geometry" />
        </mxCell>
        <mxCell id="HmMxcQXpRnZ39Q23Rilj-4" value="Gestion des rapports" style="shape=folder;fontStyle=1;spacingTop=10;tabWidth=40;tabHeight=14;tabPosition=left;html=1;whiteSpace=wrap;" vertex="1" parent="1">
          <mxGeometry x="323" y="210" width="199" height="102" as="geometry" />
        </mxCell>
        <mxCell id="HmMxcQXpRnZ39Q23Rilj-5" value="Dashboard" style="shape=folder;fontStyle=1;spacingTop=10;tabWidth=40;tabHeight=14;tabPosition=left;html=1;whiteSpace=wrap;" vertex="1" parent="1">
          <mxGeometry x="15" y="342" width="210" height="87" as="geometry" />
        </mxCell>
        <mxCell id="HmMxcQXpRnZ39Q23Rilj-15" value="Interface" style="shape=folder;fontStyle=1;spacingTop=10;tabWidth=40;tabHeight=14;tabPosition=left;html=1;whiteSpace=wrap;" vertex="1" parent="1">
          <mxGeometry x="317.5" y="340" width="210" height="87" as="geometry" />
        </mxCell>
        <mxCell id="HmMxcQXpRnZ39Q23Rilj-16" value="Diagramme de package" style="shape=umlFrame;whiteSpace=wrap;html=1;pointerEvents=0;recursiveResize=0;container=1;collapsible=0;width=160;" vertex="1" parent="1">
          <mxGeometry x="-55" y="35" width="623" height="422" as="geometry" />
        </mxCell>
      </root>
    </mxGraphModel>
  </diagram>
</mxfile>
